<?xml version="1.0" encoding="utf-8"?>
<!-- Generator: Adobe Illustrator 25.2.3, SVG Export Plug-In . SVG Version: 6.00 Build 0)  -->
<svg version="1.1" id="Layer_1" xmlns="http://www.w3.org/2000/svg" xmlns:xlink="http://www.w3.org/1999/xlink" x="0px" y="0px"
	 viewBox="0 0 69.7 69.7" style="enable-background:new 0 0 69.7 69.7;" xml:space="preserve">
<style type="text/css">
	.st0{fill:#FFFFFF;}
	.st1{fill:#FB760A;}
</style>
<g>
	<circle class="st0" cx="34.9" cy="34.9" r="31.3"/>
	<path id="Path_127" class="st1" d="M34.9,0C15.6,0,0,15.6,0,34.9c0,19.2,15.6,34.9,34.9,34.9c19.2,0,34.8-15.6,34.9-34.8
		C69.7,15.6,54.1,0,34.9,0z M8,43.9V42l8-10.3c0.8-1,1.5-1.8,2.3-2.7v-0.1H8.7v-2.5h13.5v2l-7.9,10.2c-0.7,0.9-1.5,1.8-2.3,2.7v0.1
		h10.3v2.5L8,43.9z M38,43.8l-2.6-3.9c-0.7-1-1.3-2-1.9-3h-0.1c-0.6,1-1.2,2-1.9,3l-2.6,4h-3.5l6.3-8.9l-6-8.6h3.6l2.5,3.7
		c0.7,1,1.2,1.9,1.8,2.9h0.1c0.6-1,1.2-1.9,1.8-2.9l2.4-3.7h3.5l-6,8.5l6.2,9.1L38,43.8z M56.9,38.8c-2.3,6-3.9,9.1-6.1,11
		c-1.1,1-2.5,1.7-3.9,2l-0.8-2.7c1-0.3,2-0.8,2.8-1.6c1.2-1,2.1-2.2,2.7-3.6c0.1-0.2,0.2-0.5,0.3-0.8c0-0.3-0.1-0.6-0.3-0.8
		l-6.5-16.2h3.5l3.8,10.4c0.4,1.2,0.9,2.5,1.2,3.6h0.1c0.3-1,0.7-2.4,1.1-3.7l3.5-10.3h3.4L56.9,38.8z"/>
</g>
</svg>
